<?xml version="1.0" encoding="utf-8"?>
<!-- Generator: Adobe Illustrator 25.4.1, SVG Export Plug-In . SVG Version: 6.00 Build 0)  -->
<svg version="1.1" id="Livello_1" xmlns="http://www.w3.org/2000/svg" xmlns:xlink="http://www.w3.org/1999/xlink" x="0px" y="0px"
	 viewBox="0 0 886.3 89" style="enable-background:new 0 0 886.3 89;" xml:space="preserve">
<style type="text/css">
	.st0{fill:#FFFFFF;}
</style>
<g>
	<g>
		<g>
			<g>
				<polygon class="st0" points="187.4,37.6 202.4,37.6 207.5,54.3 212.8,37.6 225.3,37.6 230.1,54.3 235.6,37.6 249.8,37.6 
					238.8,73.3 224.8,73.3 219.2,55.8 214.3,73.3 199.8,73.3 				"/>
			</g>
			<g>
				<path class="st0" d="M288,60.8h13.1c0,0-0.1,5.4,5.6,5.4c4.6,0,4.4-2.7,4.4-2.7s0.1-2.8-4.9-3.6c-5.6-0.8-17.6-1.9-17.6-11.9
					c0,0-1.1-12.2,17.4-12.2c13.1,0,17.5,5.7,17.5,12.4H311c-0.3-1.9-1.9-4-4.6-4s-4.3,1-4.3,2.3c0,1.7,1.1,2.3,8.7,3.3
					c8.8,1.8,13.8,4,13.8,13.1c0,9-9.5,12-18,12C298.1,75.1,288,72.2,288,60.8z"/>
			</g>
			<path class="st0" d="M340.4,49.8h-13.1c0,0-2.8-14.4,19.2-14.4c0,0,16.3-0.9,17.2,11.7c0.9,12.7-0.9,21.3,2.9,26.2h-14
				c0,0-1.3-1.7-1.9-3.3c0,0-3.8,4.4-11.8,4.4s-12.6-4.7-12.6-10.7s3.5-10.5,14.7-12.5c4.5-0.8,8.5-1.3,8.7-3.8s-3.2-2.9-4.1-2.9
				C345.6,44.5,340.5,44.1,340.4,49.8z M341.8,59.9c-3.1,1.3-1.5,3.7-1.5,3.7s1.5,2.5,5.2,1.6c5.3-1.4,4.9-8.4,4.9-8.4
				S344.9,58.5,341.8,59.9z"/>
			<g>
				<g>
					<rect x="410.3" y="23.9" class="st0" width="14.4" height="10.1"/>
				</g>
				<g>
					<rect x="410.3" y="37.6" class="st0" width="14.4" height="35.7"/>
				</g>
			</g>
			<g>
				<polygon class="st0" points="382.2,73.3 367.8,73.3 367.8,23.9 382.2,23.9 382.2,46.1 389.5,37.6 406.5,37.6 393.9,50.9 
					408.6,73.3 391.9,73.3 384,61.3 382.2,63.2 				"/>
			</g>
			<g>
				<polygon class="st0" points="102.2,23.9 117.2,23.9 117.2,38.9 132.2,23.9 151,23.9 131.8,43.6 152.4,73.3 132.9,73.3 121,54.7 
					117.2,58.7 117.2,73.3 102.2,73.3 				"/>
			</g>
			<path class="st0" d="M164.8,49.8h-13.1c0,0-2.8-14.4,19.2-14.4c0,0,16.3-0.9,17.2,11.7c0.9,12.7-0.9,21.3,2.9,26.2h-14
				c0,0-1.3-1.7-1.9-3.3c0,0-3.7,4.4-11.8,4.4c-8,0-12.6-4.7-12.6-10.7s3.5-10.5,14.7-12.5c4.5-0.8,8.5-1.3,8.7-3.8
				s-3.2-2.9-4.1-2.9C170,44.5,164.9,44.1,164.8,49.8z M166.2,59.9c-3.1,1.3-1.5,3.7-1.5,3.7s1.5,2.5,5.2,1.6
				c5.3-1.4,4.9-8.4,4.9-8.4S169.3,58.5,166.2,59.9z"/>
			<path class="st0" d="M262.3,49.8h-13.1c0,0-2.8-14.4,19.2-14.4c0,0,16.3-0.9,17.2,11.7c0.9,12.7-0.9,21.3,2.9,26.2h-14
				c0,0-1.3-1.7-1.9-3.3c0,0-3.8,4.4-11.8,4.4s-12.6-4.7-12.6-10.7s3.5-10.5,14.7-12.5c4.5-0.8,8.5-1.3,8.7-3.8s-3.2-2.9-4.1-2.9
				C267.5,44.5,262.4,44.1,262.3,49.8z M263.7,59.9c-3.1,1.3-1.5,3.7-1.5,3.7s1.5,2.5,5.2,1.6c5.3-1.4,4.9-8.4,4.9-8.4
				S266.8,58.5,263.7,59.9z"/>
		</g>
	</g>
	<g>
		<path class="st0" d="M60.3,48.2L60.3,48.2L60.3,48.2v-7l0,0l0,0h22C80.7,24.8,68.4,11.5,52.5,8.3v8c9,2.3,16.4,8.7,19.9,17.1H52.5
			V56h19.9l0,0c-3.5,8.4-10.9,14.9-19.9,17.2v8c16-3.1,28.2-16.5,29.8-33C82.3,48.2,60.3,48.2,60.3,48.2z"/>
		<path class="st0" d="M49.3,7.8c-1.2-0.1-2.5-0.2-3.9-0.2s-2.5,0.1-3.9,0.2v73.8c1.3,0.1,2.7,0.2,3.9,0.2c1.1,0,2.5-0.1,3.9-0.2
			V7.8z"/>
		<path class="st0" d="M18.3,56L18.3,56h19.9V33.4H18.3c3.5-8.4,10.9-14.8,19.9-17.1v-8C22.3,11.4,10,24.8,8.4,41.2h22v7h-22
			c1.5,16.4,13.9,29.8,29.8,33v-8C29.2,70.9,21.8,64.4,18.3,56z"/>
	</g>
	<g>
		<g>
			<g>
				<path class="st0" d="M464.4,36.7h4.2v25.8H481v3.7h-16.6V36.7z"/>
				<path class="st0" d="M500.6,65.4c-1.5,0.6-3.3,1.4-6.8,1.4c-7.7,0-11.2-4.7-11.2-11.7c0-6.4,4-10.9,10.1-10.9
					c7.2,0,9.5,5.2,9.5,12.2h-15.4c0,4.3,3.3,7.2,7.1,7.2c2.6,0,5.7-1.4,6.6-2.2L500.6,65.4L500.6,65.4z M498,53.4
					c0-3.3-1.9-6-5.4-6c-3.9,0-5.5,3.2-5.8,6H498z"/>
				<path class="st0" d="M517.9,47.9h-5.7v11.8c0,2.5,1.5,3.8,3.3,3.8c1.2,0,2.1-0.4,2.7-0.8v3.4c-0.9,0.3-2.1,0.6-3.4,0.6
					c-4.1,0-6.6-1.9-6.6-6.3V47.9h-4.9v-3.2h4.9v-5l4-1.3v6.3h5.7L517.9,47.9L517.9,47.9z"/>
				<path class="st0" d="M543.8,47.9h-5.7v11.8c0,2.5,1.5,3.8,3.3,3.8c1.2,0,2.1-0.4,2.7-0.8v3.4c-0.9,0.3-2.1,0.6-3.4,0.6
					c-4.1,0-6.6-1.9-6.6-6.3V47.9h-4.9v-3.2h4.9v-5l4-1.3v6.3h5.7V47.9z"/>
				<path class="st0" d="M547.7,34.5h4v13.2h0.1c1.4-2.3,3.9-3.6,6.9-3.6c5.6,0,8.1,3.5,8.1,9.3v12.8h-4V55.1c0-5-1.1-7.5-4.6-7.7
					c-4.5,0-6.6,3.6-6.6,8.9v10h-4L547.7,34.5L547.7,34.5z"/>
				<path class="st0" d="M588.9,65.4c-1.5,0.6-3.3,1.4-6.8,1.4c-7.7,0-11.2-4.7-11.2-11.7c0-6.4,4-10.9,10.1-10.9
					c7.2,0,9.5,5.2,9.5,12.2h-15.4c0,4.3,3.3,7.2,7.1,7.2c2.6,0,5.7-1.4,6.6-2.2v4H588.9z M586.3,53.4c0-3.3-1.9-6-5.4-6
					c-3.9,0-5.5,3.2-5.8,6H586.3z"/>
				<path class="st0" d="M624.5,65.3c0,6.6-3.4,10.3-11.1,10.3c-2.3,0-4.3-0.3-7.7-1.5l0.4-3.7c3,1.4,4.9,1.9,7.8,1.9
					c4.2,0,6.7-2.8,6.7-7.4v-2.1h-0.1c-1.7,2.2-4.5,3.3-7.2,3.3c-6.2,0-9.2-5-9.2-10.6c0-5.5,3.1-11.5,9.6-11.5
					c3.8,0,5.9,1.4,7.1,3.7h0.1v-3.2h3.7L624.5,65.3L624.5,65.3z M620.5,55.7c0-4.5-2.1-8.3-6.3-8.3c-4,0-6,4.4-6,8
					c0,4.1,2.3,7.6,6,7.6S620.5,59.7,620.5,55.7z"/>
				<path class="st0" d="M639.6,44.2c6.6,0,11,4.7,11,11.3c0,6.2-4.5,11.3-11,11.3s-11-5.1-11-11.3C628.6,48.9,633,44.2,639.6,44.2z
					 M639.6,63.5c4.7,0,6.7-4.2,6.7-8.1c0-4.1-2.5-8.1-6.7-8.1c-4.3,0-6.8,4-6.8,8.1C632.9,59.3,635,63.5,639.6,63.5z"/>
				<path class="st0" d="M664.4,44.2c6.6,0,11,4.7,11,11.3c0,6.2-4.5,11.3-11,11.3s-11-5.1-11-11.3
					C653.4,48.9,657.8,44.2,664.4,44.2z M664.4,63.5c4.7,0,6.7-4.2,6.7-8.1c0-4.1-2.5-8.1-6.7-8.1c-4.3,0-6.8,4-6.8,8.1
					C657.6,59.3,659.7,63.5,664.4,63.5z"/>
				<path class="st0" d="M694.8,63.2L694.8,63.2c-1.1,1.6-3.6,3.6-7.4,3.6c-6.5,0-9.3-5.8-9.3-11.7c0-5.8,3-10.9,9.3-10.9
					c3.8,0,5.9,1.5,7.2,3.5h0.1V34.5h4v31.7h-3.8L694.8,63.2L694.8,63.2z M688.3,63.5c4.5,0,6.3-4.4,6.3-8c0-4-2.1-8.1-6.4-8.1
					c-4.3,0-6,4.1-5.9,8C682.2,58.8,684,63.5,688.3,63.5z"/>
				<path class="st0" d="M726.3,47.9h-5.7v11.8c0,2.5,1.5,3.8,3.3,3.8c1.2,0,2.1-0.4,2.7-0.8v3.4c-0.9,0.3-2.1,0.6-3.4,0.6
					c-4.1,0-6.6-1.9-6.6-6.3V47.9h-4.9v-3.2h4.9v-5l4-1.3v6.3h5.7V47.9z"/>
				<path class="st0" d="M734.9,39.8h-4.5v-4.5h4.5V39.8z M730.6,44.7h4v21.6h-4V44.7z"/>
				<path class="st0" d="M740.7,44.7h3.7v3.1h0.1c1.5-2.5,3.7-3.6,6.9-3.6c2.5,0,5,1.3,6.1,4.2c1.5-3.1,4.7-4.2,6.7-4.2
					c5.5,0,7.5,3.6,7.5,8.2v13.8h-4V53.4c0-2.7-0.6-6-3.8-6c-4.1,0-5.7,4-5.7,8v10.9h-4V53.4c0-2.7-0.6-6-3.9-6c-4.1,0-5.7,4-5.7,8
					v10.9h-4V44.7H740.7z"/>
				<path class="st0" d="M793.8,65.4c-1.5,0.6-3.3,1.4-6.8,1.4c-7.7,0-11.2-4.7-11.2-11.7c0-6.4,4-10.9,10.1-10.9
					c7.2,0,9.5,5.2,9.5,12.2H780c0,4.3,3.3,7.2,7.1,7.2c2.6,0,5.7-1.4,6.6-2.2v4H793.8z M791.2,53.4c0-3.3-1.9-6-5.4-6
					c-3.9,0-5.5,3.2-5.8,6H791.2z"/>
				<path class="st0" d="M798,62c1.6,1,3.8,1.5,4.9,1.5c1.8,0,4.1-0.8,4.1-3.1c0-3.9-9.4-3.6-9.4-9.6c0-4.5,3.3-6.6,7.6-6.6
					c1.9,0,3.4,0.4,4.9,0.8l-0.3,3.5c-0.9-0.6-3.3-1.1-4.2-1.1c-2,0-3.8,0.8-3.8,2.6c0,4.4,9.4,3.1,9.4,10c0,4.6-3.7,6.7-7.5,6.7
					c-2,0-4.1-0.2-5.9-1.2L798,62z"/>
				<path class="st0" d="M825.5,44.7h3.7V48h0.1c1.1-2.2,3.3-3.8,5.6-3.8c1.2,0,1.8,0.1,2.6,0.3V48c-0.7-0.3-1.5-0.4-2.2-0.4
					c-3.6,0-5.9,3.4-5.9,8.8v9.8h-4V44.7H825.5z"/>
				<path class="st0" d="M850.4,44.2c6.6,0,11,4.7,11,11.3c0,6.2-4.5,11.3-11,11.3s-11-5.1-11-11.3
					C839.4,48.9,843.8,44.2,850.4,44.2z M850.4,63.5c4.7,0,6.7-4.2,6.7-8.1c0-4.1-2.5-8.1-6.7-8.1c-4.3,0-6.8,4-6.8,8.1
					C843.6,59.3,845.7,63.5,850.4,63.5z"/>
				<path class="st0" d="M866,34.5h4v31.7h-4V34.5z"/>
				<path class="st0" d="M876.7,34.5h4v31.7h-4V34.5z"/>
			</g>
		</g>
	</g>
</g>
</svg>
